<?xml version="1.0" encoding="UTF-8" standalone="no"?>
<svg
   xmlns:dc="http://purl.org/dc/elements/1.1/"
   xmlns:cc="http://creativecommons.org/ns#"
   xmlns:rdf="http://www.w3.org/1999/02/22-rdf-syntax-ns#"
   xmlns:svg="http://www.w3.org/2000/svg"
   xmlns="http://www.w3.org/2000/svg"
   xmlns:sodipodi="http://sodipodi.sourceforge.net/DTD/sodipodi-0.dtd"
   xmlns:inkscape="http://www.inkscape.org/namespaces/inkscape"
   inkscape:version="1.0 (4035a4f, 2020-05-01)"
   sodipodi:docname="nebraska emf.svg"
   viewBox="0 0 281.99945 83.186668"
   height="83.186668"
   width="281.99945"
   xml:space="preserve"
   id="svg28"
   version="1.1"><metadata
     id="metadata34"><rdf:RDF><cc:Work
         rdf:about=""><dc:format>image/svg+xml</dc:format><dc:type
           rdf:resource="http://purl.org/dc/dcmitype/StillImage" /><dc:title></dc:title></cc:Work></rdf:RDF></metadata><defs
     id="defs32"><clipPath
       id="clipPath48"
       clipPathUnits="userSpaceOnUse"><path
         id="path46"
         d="M 0,0 H 792 V 540 H 0 Z" /></clipPath><clipPath
       id="clipPath144"
       clipPathUnits="userSpaceOnUse"><path
         id="path142"
         d="m 488.25,148.32 h 211.5 v 64.8 h -211.5 z" /></clipPath><clipPath
       id="clipPath236"
       clipPathUnits="userSpaceOnUse"><path
         id="path234"
         d="M 31.68,17.1 H 756 V 134.455 H 31.68 Z" /></clipPath></defs><sodipodi:namedview
     inkscape:current-layer="g36"
     inkscape:window-maximized="0"
     inkscape:window-y="203"
     inkscape:window-x="0"
     inkscape:cy="-120.35314"
     inkscape:cx="-122.99998"
     inkscape:zoom="0.89861111"
     fit-margin-bottom="0"
     fit-margin-right="0"
     fit-margin-left="0"
     fit-margin-top="0"
     showgrid="false"
     id="namedview30"
     inkscape:window-height="799"
     inkscape:window-width="1217"
     inkscape:pageshadow="2"
     inkscape:pageopacity="0"
     guidetolerance="10"
     gridtolerance="10"
     objecttolerance="10"
     borderopacity="1"
     bordercolor="#666666"
     pagecolor="#ffffff" /><g
     transform="matrix(1.3333333,0,0,-1.3333333,-650.99998,284.15999)"
     inkscape:label="UnderstandingBrandStrategy_1"
     inkscape:groupmode="layer"
     id="g36"><g
       id="g138"><g
         clip-path="url(#clipPath144)"
         id="g140"><g
           transform="translate(534.1248,213.12)"
           id="g146"><path
             id="path148"
             style="fill:#ab1b2c;fill-opacity:1;fill-rule:nonzero;stroke:none"
             d="M 0,0 3.842,-4.082 V -19.68 L -14.68,0 h -16.515 l 3.842,-4.082 V -19.68 L -45.875,0 v -19.497 c 0,-13.648 5.849,-29.245 31.195,-42.893 6.919,3.725 12.381,7.596 16.671,11.532 l -16.671,17.713 v 15.598 L 9.138,-42.853 c 5.648,7.944 7.377,15.938 7.377,23.356 V 0 Z" /></g><g
           transform="translate(579.1046,206.8444)"
           id="g150"><path
             id="path152"
             style="fill:#231f20;fill-opacity:1;fill-rule:nonzero;stroke:none"
             d="m 0,0 c 0.679,-1.416 0.698,-1.79 0.698,-3.808 v -9.164 l -8.566,10.25 -0.187,0.232 c -0.712,0.879 -1.517,1.874 -1.89,2.728 l -0.076,0.171 h -6.337 l 0.324,-0.451 c 0.822,-1.147 1.156,-1.72 1.156,-4.432 V -16.39 c 0,-2.533 -0.227,-3.377 -0.869,-4.485 l -0.248,-0.429 h 5.3 l -0.191,0.408 c -0.737,1.562 -0.911,2.021 -0.911,4.415 V -4.596 L 2.151,-21.304 h 1.658 v 17.465 c 0,2.119 0.054,2.639 0.665,3.833 l 0.212,0.415 h -4.882 z" /></g><g
           transform="translate(589.4221,196.3046)"
           id="g154"><path
             id="path156"
             style="fill:#231f20;fill-opacity:1;fill-rule:nonzero;stroke:none"
             d="M 0,0 C 0.516,2.411 1.68,3.632 3.463,3.632 6.216,3.632 6.773,1.476 6.832,0 Z m 3.645,6.533 c -4.977,0 -8.452,-3.699 -8.452,-8.997 0,-5.465 3.804,-8.996 9.692,-8.996 1.724,0 4.015,0.661 5.215,1.504 l 0.089,0.063 1.094,4.754 -0.655,-0.554 c -2.01,-1.701 -3.963,-2.563 -5.803,-2.563 -4.245,0 -4.926,3.714 -5.025,5.265 h 11.691 v 0.286 c 0,3.45 -1.019,9.238 -7.846,9.238" /></g><g
           transform="translate(610.0315,187.7151)"
           id="g158"><path
             id="path160"
             style="fill:#231f20;fill-opacity:1;fill-rule:nonzero;stroke:none"
             d="m 0,0 c -2.344,0 -3.344,0.991 -3.344,3.314 v 4.96 c 0,1.705 0.633,3.737 3.646,3.737 2.719,0 4.343,-2.155 4.343,-5.763 C 4.645,3.914 4.042,0 0,0 m 0.514,15.123 c -1.807,0 -3.184,-0.706 -3.858,-1.107 v 5.522 h -5.217 l 0.198,-0.409 c 0.439,-0.907 0.818,-1.688 0.818,-4.323 V 2.225 c 0,-2.227 -0.2,-2.929 -0.412,-3.672 l -0.104,-0.364 h 1.558 c 0.676,0 1.604,-0.216 2.585,-0.445 1.236,-0.287 2.637,-0.614 3.948,-0.614 5.197,0 9.268,3.978 9.268,9.057 0,5.01 -3.858,8.936 -8.784,8.936" /></g><g
           transform="translate(628.8408,202.8375)"
           id="g162"><path
             id="path164"
             style="fill:#231f20;fill-opacity:1;fill-rule:nonzero;stroke:none"
             d="m 0,0 c -1.545,0 -2.705,-1.113 -3.586,-2.304 v 1.639 h -5.055 l 0.222,-0.42 c 0.531,-1.002 0.692,-1.953 0.692,-4.07 v -7.622 c 0,-2.4 -0.067,-3.181 -0.541,-4.103 l -0.214,-0.417 h 5.958 l -0.18,0.402 c -0.614,1.375 -0.701,2.113 -0.701,4.118 v 3.902 c 0,1.87 0.363,5.007 2.8,5.007 0.387,0 0.665,-0.086 1.026,-0.317 l 0.394,-0.253 0.396,4.157 -0.198,0.079 C 0.679,-0.068 0.339,0 0,0" /></g><g
           transform="translate(640.4703,191.4826)"
           id="g166"><path
             id="path168"
             style="fill:#231f20;fill-opacity:1;fill-rule:nonzero;stroke:none"
             d="m 0,0 c 0,-1.956 -1.495,-3.374 -3.555,-3.374 -1.511,0 -2.376,0.811 -2.376,2.224 0,1.722 1.788,2.263 3.949,2.746 L 0,2.034 Z m 4.14,-1.542 v 7.561 c 0,3.391 -2.761,5.336 -7.575,5.336 -1.626,0 -3.273,-0.27 -4.898,-0.8 L -8.49,10.503 -9.492,5.645 -8.891,6.092 c 1.255,0.933 2.973,2.212 5.365,2.212 2.17,0 3.465,-0.854 3.465,-2.285 0,-1.109 -1.646,-1.442 -3.552,-1.828 -2.999,-0.608 -6.732,-1.364 -6.732,-5.552 0,-2.909 2.517,-5.277 5.609,-5.277 2.185,0 4.031,1.112 5.269,2.136 0.411,-0.735 1.146,-1.742 2.746,-1.742 0.397,0 0.902,0.127 1.228,0.308 l 0.068,0.038 1.285,2.181 -0.488,0.01 C 4.267,-3.683 4.14,-3.46 4.14,-1.542" /></g><g
           transform="translate(655.469,195.9039)"
           id="g170"><path
             id="path172"
             style="fill:#231f20;fill-opacity:1;fill-rule:nonzero;stroke:none"
             d="m 0,0 c -1.895,0.507 -3.532,0.945 -3.532,2.323 0,0.687 0.776,1.711 2.913,1.711 2.31,0 4.221,-1.674 4.763,-2.318 L 4.646,1.117 v 4.554 l -0.151,0.08 c -1.459,0.774 -3.226,1.183 -5.114,1.183 -3.716,0 -7.467,-1.735 -7.467,-5.609 0,-3.691 3.233,-4.586 5.829,-5.303 1.844,-0.511 3.436,-0.951 3.436,-2.198 0,-0.942 -0.948,-1.892 -3.065,-1.892 -3.536,0 -5.637,2.772 -5.865,3.088 l -0.618,0.856 0.543,-5.543 0.153,-0.067 c 1.944,-0.854 3.989,-1.325 5.757,-1.325 5.528,0 7.497,3.132 7.497,6.063 C 5.581,-1.492 2.487,-0.665 0,0" /></g><g
           transform="translate(675.4175,189.318)"
           id="g174"><path
             id="path176"
             style="fill:#231f20;fill-opacity:1;fill-rule:nonzero;stroke:none"
             d="m 0,0 -4.679,6.09 c 2.566,2.31 5.156,4.944 8.108,6.765 H -2.964 L -2.985,12.592 C -3.068,11.607 -3.194,11.333 -4.588,10.086 L -8.373,6.597 v 11.339 h -5.067 l 0.199,-0.411 c 0.468,-0.964 0.516,-1.78 0.516,-3.414 V 0.985 c 0,-2.428 -0.063,-3.401 -0.436,-4.374 l -0.147,-0.388 h 5.565 l -0.133,0.38 c -0.403,1.154 -0.497,1.655 -0.497,3.928 V 4.55 l 4.475,-5.914 c 0.76,-1.013 0.76,-1.013 0.76,-2.127 V -3.777 H 3.359 L 2.851,-3.286 C 1.922,-2.389 1.191,-1.51 0,0" /></g><g
           transform="translate(688.6115,191.4826)"
           id="g178"><path
             id="path180"
             style="fill:#231f20;fill-opacity:1;fill-rule:nonzero;stroke:none"
             d="m 0,0 c 0,-1.956 -1.495,-3.374 -3.555,-3.374 -1.511,0 -2.376,0.811 -2.376,2.224 0,1.722 1.789,2.263 3.95,2.746 L 0,2.034 Z M 5.373,-3.707 C 4.268,-3.683 4.141,-3.46 4.141,-1.542 v 7.561 c 0,3.391 -2.762,5.336 -7.576,5.336 -1.624,0 -3.272,-0.27 -4.897,-0.8 L -8.489,10.503 -9.491,5.645 -8.89,6.092 c 1.255,0.933 2.973,2.212 5.365,2.212 2.17,0 3.465,-0.854 3.465,-2.285 0,-1.109 -1.646,-1.442 -3.553,-1.828 -2.999,-0.608 -6.73,-1.364 -6.73,-5.552 0,-2.909 2.516,-5.277 5.608,-5.277 2.185,0 4.031,1.112 5.269,2.136 0.41,-0.736 1.144,-1.742 2.746,-1.742 0.397,0 0.902,0.127 1.228,0.308 l 0.068,0.038 1.284,2.181 z" /></g><g
           transform="translate(590.8138,158.976)"
           id="g182"><path
             id="path184"
             style="fill:#231f20;fill-opacity:1;fill-rule:nonzero;stroke:none"
             d="m 0,0 c -0.362,0.891 -0.649,1.594 -0.795,2.855 l -1.784,13.824 c -0.101,0.748 -0.149,1.379 -0.149,1.988 0,0.656 0.282,1.256 0.56,1.561 l 0.438,0.479 h -6.273 l -0.239,-0.02 -0.045,-0.23 c -0.18,-0.926 -0.299,-1.536 -0.888,-2.98 L -13.656,6.8 -18.082,17.591 c -0.483,1.237 -0.645,1.951 -0.645,2.83 v 0.286 h -6.485 l 0.308,-0.64 c 0.233,-0.471 0.433,-0.876 0.433,-1.672 0,-0.242 -0.049,-0.528 -0.102,-0.831 -0.04,-0.229 -0.081,-0.467 -0.107,-0.701 L -26.675,2.854 C -26.878,1.266 -27.072,0.44 -27.748,-0.56 l -0.301,-0.445 h 5.083 l -0.208,0.413 c -0.36,0.722 -0.543,1.442 -0.543,2.14 0,0.572 0.076,1.184 0.159,1.832 l 1.803,12.198 6.877,-16.583 h 1.105 l 7.099,16.792 1.561,-12.655 c 0.012,-0.168 0.026,-0.328 0.041,-0.485 0.025,-0.258 0.05,-0.506 0.05,-0.766 0,-0.923 -0.343,-1.813 -0.642,-2.485 L -5.842,-1.005 H 0.399 L 0.247,-0.616 C 0.162,-0.397 0.079,-0.194 0,0" /></g><g
           transform="translate(596.3704,168.7342)"
           id="g186"><path
             id="path188"
             style="fill:#231f20;fill-opacity:1;fill-rule:nonzero;stroke:none"
             d="M 0,0 C 0.518,2.411 1.683,3.632 3.464,3.632 6.216,3.632 6.773,1.476 6.832,0 Z m 3.645,6.533 c -4.976,0 -8.452,-3.699 -8.452,-8.997 0,-5.464 3.804,-8.996 9.692,-8.996 1.724,0 4.015,0.661 5.215,1.504 l 0.089,0.063 1.096,4.755 -0.656,-0.555 c -2.01,-1.701 -3.963,-2.563 -5.804,-2.563 -4.244,0 -4.926,3.714 -5.025,5.265 h 11.692 v 0.286 c 0,3.45 -1.019,9.238 -7.847,9.238" /></g><g
           transform="translate(622.199,165.6925)"
           id="g190"><path
             id="path192"
             style="fill:#231f20;fill-opacity:1;fill-rule:nonzero;stroke:none"
             d="m 0,0 c 0.02,-1.65 -0.103,-3.482 -1.164,-4.555 -0.62,-0.628 -1.491,-0.932 -2.663,-0.932 -3.157,0 -4.282,3.149 -4.282,6.095 0,2.933 1.172,6.067 4.463,6.067 1.117,0 1.982,-0.303 2.569,-0.897 C -0.079,4.767 0.016,3.054 0,1.849 Z M 4.201,-3.898 V 13.99 h -5.082 l 0.255,-0.431 C -0.164,12.78 0,12.085 0,9.742 V 8.489 c -1.276,0.571 -2.506,1.085 -4.069,1.085 -4.841,0 -8.634,-3.911 -8.634,-8.905 0,-5.265 3.618,-9.087 8.604,-9.087 1.865,0 3.252,0.811 4.099,1.412 V -7.722 H 5.079 L 4.865,-7.306 C 4.302,-6.21 4.201,-6.013 4.201,-3.898" /></g><g
           transform="translate(633.988,162.7625)"
           id="g194"><path
             id="path196"
             style="fill:#231f20;fill-opacity:1;fill-rule:nonzero;stroke:none"
             d="m 0,0 v 11.839 h -5.061 l 0.155,-0.39 c 0.39,-0.992 0.645,-1.806 0.645,-4.008 V 0 c 0,-2.605 -0.041,-3.655 -0.472,-4.357 L -5.001,-4.792 H 0.741 L 0.584,-4.401 C 0.178,-3.386 0,-2.819 0,0" /></g><g
           transform="translate(631.7966,175.8754)"
           id="g198"><path
             id="path200"
             style="fill:#231f20;fill-opacity:1;fill-rule:nonzero;stroke:none"
             d="M 0,0 C 1.258,0 2.282,0.997 2.282,2.221 2.282,3.479 1.258,4.502 0,4.502 -1.237,4.502 -2.282,3.457 -2.282,2.221 -2.282,0.997 -1.258,0 0,0" /></g><g
           transform="translate(645.4055,160.2356)"
           id="g202"><path
             id="path204"
             style="fill:#231f20;fill-opacity:1;fill-rule:nonzero;stroke:none"
             d="m 0,0 c -2.983,0 -4.764,2.177 -4.764,5.823 0,3.832 1.858,6.308 4.734,6.308 2.572,0 3.767,-2.063 3.981,-2.477 l 0.506,-0.979 0.16,5.329 -0.193,0.072 c -0.959,0.357 -2.829,0.956 -4.575,0.956 -4.414,0 -9.177,-3.486 -9.177,-9.118 0,-4.418 2.857,-8.875 9.238,-8.875 1.344,0 2.728,0.289 3.897,0.812 L 3.931,-2.094 5.337,3.041 4.5,2.045 C 4.43,1.962 2.746,0 0,0" /></g><g
           transform="translate(655.1172,175.8754)"
           id="g206"><path
             id="path208"
             style="fill:#231f20;fill-opacity:1;fill-rule:nonzero;stroke:none"
             d="M 0,0 C 1.258,0 2.282,0.997 2.282,2.221 2.282,3.479 1.258,4.502 0,4.502 -1.237,4.502 -2.282,3.457 -2.282,2.221 -2.282,0.997 -1.258,0 0,0" /></g><g
           transform="translate(657.3086,162.7625)"
           id="g210"><path
             id="path212"
             style="fill:#231f20;fill-opacity:1;fill-rule:nonzero;stroke:none"
             d="m 0,0 v 11.839 h -5.061 l 0.155,-0.39 c 0.39,-0.992 0.645,-1.806 0.645,-4.008 V 0 c 0,-2.605 -0.041,-3.655 -0.472,-4.357 L -5.001,-4.792 H 0.741 L 0.584,-4.401 C 0.178,-3.386 0,-2.819 0,0" /></g><g
           transform="translate(675.5447,162.0666)"
           id="g214"><path
             id="path216"
             style="fill:#231f20;fill-opacity:1;fill-rule:nonzero;stroke:none"
             d="m 0,0 v 6.231 c 0,2.086 0,6.97 -5.911,6.97 -2.753,0 -4.3,-1.226 -5.067,-2.135 v 1.469 h -5.078 l 0.175,-0.399 c 0.615,-1.406 0.671,-1.862 0.671,-5.421 v -7.229 c 0,-1.404 -0.107,-2.184 -0.439,-3.208 l -0.121,-0.374 h 5.49 l -0.142,0.385 c -0.406,1.101 -0.556,2.033 -0.556,3.439 v 4.235 c 0,4.09 1.255,5.914 4.069,5.914 2.389,0 2.587,-2.025 2.587,-4.281 V -0.03 c 0,-1.895 -0.16,-2.612 -0.5,-3.694 l -0.117,-0.372 h 5.554 l -0.113,0.37 C 0.153,-2.594 0,-2.009 0,0" /></g><g
           transform="translate(682.1667,168.7342)"
           id="g218"><path
             id="path220"
             style="fill:#231f20;fill-opacity:1;fill-rule:nonzero;stroke:none"
             d="M 0,0 C 0.518,2.411 1.683,3.632 3.464,3.632 6.216,3.632 6.773,1.476 6.832,0 Z m 11.492,-2.705 c 0,3.45 -1.019,9.238 -7.847,9.238 -4.976,0 -8.452,-3.699 -8.452,-8.997 0,-5.464 3.805,-8.996 9.692,-8.996 1.724,0 4.015,0.661 5.215,1.504 l 0.089,0.063 1.096,4.755 -0.656,-0.555 c -2.01,-1.701 -3.963,-2.563 -5.804,-2.563 -4.244,0 -4.926,3.714 -5.025,5.265 h 11.692 z" /></g><g
           transform="translate(695.1063,200.3652)"
           id="g222"><path
             id="path224"
             style="fill:#231f20;fill-opacity:1;fill-rule:nonzero;stroke:none"
             d="m 0,0 c 0.007,-0.172 0.028,-0.491 0.598,-0.491 0.515,0 0.58,0.319 0.58,0.442 0,0.279 -0.223,0.334 -0.57,0.42 -0.378,0.093 -0.547,0.133 -0.674,0.22 -0.202,0.137 -0.257,0.322 -0.257,0.487 0,0.506 0.477,0.726 0.945,0.726 C 0.787,1.804 1.12,1.776 1.32,1.56 1.457,1.409 1.464,1.241 1.471,1.137 H 1.113 C 1.096,1.446 0.835,1.516 0.591,1.516 0.248,1.516 0.042,1.36 0.042,1.113 0.042,0.893 0.185,0.818 0.488,0.745 1.079,0.594 1.145,0.581 1.288,0.484 1.519,0.333 1.536,0.092 1.536,-0.01 c 0,-0.441 -0.344,-0.774 -0.98,-0.774 -0.189,0 -0.573,0.031 -0.769,0.282 C -0.354,-0.321 -0.358,-0.12 -0.358,0 Z" /></g><g
           transform="translate(697.1556,202.1206)"
           id="g226"><path
             id="path228"
             style="fill:#231f20;fill-opacity:1;fill-rule:nonzero;stroke:none"
             d="M 0,0 H 0.608 L 1.309,-2.044 2.028,0 H 2.594 V -2.482 H 2.258 v 2.235 L 1.444,-2.482 H 1.117 L 0.333,-0.261 V -2.482 H 0 Z" /></g></g></g></g></svg>
